<?xml version="1.0" encoding="utf-8"?>
<svg width="570" height="570" viewBox="0 0 570 570" fill="none" xmlns="http://www.w3.org/2000/svg">
  <g opacity="0.5">
    <path d="M285 570C442.401 570 570 442.401 570 285C570 127.599 442.401 0 285 0C127.599 0 0 127.599 0 285C0 442.401 127.599 570 285 570Z" fill="white"/>
    <path d="M568 285C568 441.297 441.297 568 285 568C128.703 568 2 441.297 2 285C2 128.703 128.703 2 285 2C441.297 2 568 128.703 568 285Z" stroke="#4360E6" stroke-opacity="0.56" stroke-width="4"/>
  </g>
  <path opacity="0.5" d="M285 526.155C418.185 526.155 526.153 418.187 526.153 285.001C526.153 151.816 418.185 43.8477 285 43.8477C151.814 43.8477 43.8457 151.816 43.8457 285.001C43.8457 418.187 151.814 526.155 285 526.155Z" fill="#D3E3F8"/>
  <path d="M392.124 204.285H178.374C171.502 204.285 164.912 207.015 160.053 211.874C155.195 216.733 152.465 223.323 152.465 230.194C152.465 237.066 155.195 243.656 160.053 248.515C164.912 253.374 171.502 256.103 178.374 256.103H405.377C409.825 256.098 414.194 257.279 418.033 259.526V230.194C418.033 223.323 415.303 216.733 410.444 211.874C405.586 207.015 398.995 204.285 392.124 204.285Z" fill="#4360E6"/>
  <path d="M 369.631 214.452 C 369.631 257.926 334.389 293.169 290.915 293.169 C 247.44 293.169 212.198 257.926 212.198 214.452 C 212.198 170.978 247.44 135.736 290.915 135.736 C 334.389 135.736 369.631 170.978 369.631 214.452 Z" fill="#7EE6CC" stroke="white" stroke-width="4"/>
  <path d="M 291.477 275.208 C 324.85 275.208 351.905 248.153 351.905 214.78 C 351.905 181.406 324.85 154.352 291.477 154.352 C 258.103 154.352 231.049 181.406 231.049 214.78 C 231.049 248.153 258.103 275.208 291.477 275.208 Z" fill="#B3F8E7"/>
  <path d="M408.203 163.566C411.575 161.323 415.211 159.507 419.03 158.16C403.196 154.224 396.719 143.561 394.078 135.121C391.417 143.552 384.935 154.199 369.205 158.145C373.041 159.51 376.69 161.351 380.067 163.626C385.224 167.144 391.133 172.859 394.073 181.638C396.983 172.814 402.967 167.084 408.203 163.566Z" fill="#C2D4F4"/>
  <path d="M203.216 162.723C205.907 160.931 208.811 159.482 211.861 158.408C199.215 155.259 194.043 146.749 191.931 140.008C189.808 146.739 184.631 155.239 172.07 158.393C175.134 159.484 178.048 160.955 180.745 162.773C184.865 165.578 189.579 170.142 191.926 177.153C194.257 170.107 199.036 165.533 203.216 162.723Z" fill="#A2BDEE" fill-opacity="0.4"/>
  <path d="M258.767 113.157C262.832 110.044 267.298 107.493 272.045 105.574C252.613 100.043 244.681 85.0856 241.442 73.2422C238.179 85.0707 230.232 100.008 210.939 105.549C215.707 107.501 220.189 110.088 224.263 113.242C232.521 119.633 238.535 128.482 241.437 138.513C244.324 128.412 250.404 119.516 258.767 113.157Z" fill="#9CC8FF"/>
  <g filter="url(#filter0_f_1833_15593)">
    <path d="M394.407 246.136H179.59L179.562 246.101C173.325 245.756 167.45 242.88 163.149 238.065C158.849 233.251 156.451 226.865 156.451 220.227V417.335C156.451 420.633 157.061 423.899 158.248 426.946C159.436 429.993 161.176 432.761 163.37 435.093C165.564 437.425 168.169 439.275 171.036 440.537C173.902 441.798 176.975 442.447 180.078 442.447H394.407C397.509 442.447 400.582 441.798 403.449 440.537C406.316 439.275 408.921 437.425 411.115 435.093C413.309 432.761 415.049 429.993 416.236 426.946C417.423 423.899 418.034 420.633 418.033 417.335V271.248C418.034 267.95 417.423 264.684 416.236 261.637C415.049 258.59 413.309 255.821 411.115 253.489C408.921 251.157 406.316 249.308 403.449 248.046C400.582 246.784 397.509 246.135 394.407 246.136Z" fill="#4360E6" fill-opacity="0.32"/>
  </g>
  <path d="M405.377 256.1H177.059L177.029 256.066C170.399 255.721 164.155 252.845 159.584 248.03C155.013 243.215 152.465 236.83 152.465 230.191V427.3C152.464 430.598 153.113 433.864 154.375 436.911C155.637 439.958 157.486 442.726 159.818 445.058C162.15 447.39 164.919 449.24 167.966 450.502C171.013 451.763 174.279 452.412 177.577 452.412H405.377C408.675 452.412 411.941 451.763 414.988 450.502C418.035 449.24 420.804 447.39 423.136 445.058C425.468 442.726 427.317 439.958 428.579 436.911C429.841 433.864 430.49 430.598 430.489 427.3V281.212C430.49 277.914 429.841 274.649 428.579 271.602C427.317 268.555 425.468 265.786 423.136 263.454C420.804 261.122 418.035 259.272 414.988 258.011C411.941 256.749 408.675 256.1 405.377 256.1Z" fill="#A4C8FF"/>
  <path d="M359.019 322.367H435.89C438.025 322.367 440.073 323.215 441.583 324.725C443.093 326.235 443.941 328.283 443.941 330.419V376.099C443.941 378.234 443.093 380.282 441.583 381.792C440.073 383.302 438.025 384.15 435.89 384.15H359.019C355.113 384.15 351.367 382.599 348.605 379.837C345.843 377.074 344.291 373.328 344.291 369.422V337.096C344.291 333.189 345.843 329.443 348.605 326.681C351.367 323.919 355.113 322.367 359.019 322.367Z" fill="#698DEB"/>
  <path d="M368.208 365.217C374.812 365.217 380.166 359.863 380.166 353.259C380.166 346.655 374.812 341.301 368.208 341.301C361.604 341.301 356.25 346.655 356.25 353.259C356.25 359.863 361.604 365.217 368.208 365.217Z" fill="white"/>
  <defs>
    <filter id="filter0_f_1833_15593" x="116.451" y="180.227" width="341.582" height="302.219" filterUnits="userSpaceOnUse" color-interpolation-filters="sRGB">
      <feFlood flood-opacity="0" result="BackgroundImageFix"/>
      <feBlend mode="normal" in="SourceGraphic" in2="BackgroundImageFix" result="shape"/>
      <feGaussianBlur stdDeviation="20" result="effect1_foregroundBlur_1833_15593"/>
    </filter>
  </defs>
  <g transform="matrix(0.020492, 0, 0, -0.019333, 242.942047, 260.775665)" fill="#000000" stroke="none" style="">
    <path d="M2437 4774 c-2 -3 -17 -7 -33 -10 -38 -7 -101 -44 -141 -84 -88 -87 -115 -233 -63 -345 28 -61 97 -139 131 -150 17 -6 19 -17 19 -101 l0 -94 -250 0 -250 0 0 24 c0 23 -2 24 -72 23 -50 -2 -73 -6 -74 -14 -1 -7 -2 -17 -3 -22 0 -4 -26 -11 -57 -15 -31 -4 -70 -14 -85 -23 -39 -23 -63 -75 -54 -120 13 -73 46 -98 140 -109 57 -6 56 -6 59 -31 3 -15 13 -18 74 -19 70 -2 72 -1 72 22 0 18 6 24 23 25 85 2 470 -1 473 -3 1 -2 4 -91 5 -198 2 -247 8 -268 76 -304 46 -23 98 -20 141 9 20 14 33 25 28 25 -5 0 -1 9 9 20 16 17 18 46 23 232 2 117 6 214 7 216 2 2 392 4 488 3 22 -1 27 -6 27 -25 0 -23 2 -23 78 -22 65 1 77 4 77 18 0 22 4 25 43 31 51 8 95 39 116 81 36 74 -10 149 -106 171 -41 9 -53 16 -53 31 0 17 -9 19 -77 22 -78 3 -78 3 -78 -23 l0 -25 -260 0 -260 0 0 95 c0 90 1 96 23 104 48 19 123 119 141 189 21 81 11 156 -31 233 -41 76 -118 137 -197 156 -32 7 -123 12 -129 7z m109 -190 c102 -49 107 -185 9 -243 -65 -38 -129 -23 -178 43 -48 63 -28 152 45 196 40 24 79 25 124 4z" style="fill: rgb(34, 174, 239);"/>
    <path d="M1195 2986 c-79 -19 -126 -46 -185 -106 -66 -66 -98 -127 -112 -216 -40 -237 143 -456 381 -456 124 0 206 35 292 123 150 153 146 398 -9 553 -41 41 -129 92 -177 102 -50 11 -144 11 -190 0z m199 -125 c212 -94 234 -367 41 -496 -58 -39 -63 -40 -145 -40 -69 0 -93 4 -127 22 -167 90 -208 304 -85 444 76 87 212 117 316 70z" style="fill: rgb(34, 174, 239);"/>
    <path d="M2072 2984 c-185 -38 -303 -200 -296 -404 5 -150 83 -274 211 -335 152 -72 331 -33 447 97 56 61 83 120 92 196 l6 57 -188 -2 c-104 -1 -198 -2 -210 -3 -18 0 -21 -7 -23 -55 l-2 -55 146 0 146 0 -15 -28 c-53 -102 -182 -157 -298 -126 -203 53 -272 335 -116 480 50 47 95 66 170 72 111 8 208 -40 246 -121 l20 -42 60 0 59 -1 -8 30 c-31 108 -117 195 -223 228 -76 23 -151 27 -224 12z" style="fill: rgb(34, 174, 239);"/>
    <path d="M3766 2986 c-8 -6 -36 -65 -61 -131 -26 -66 -51 -129 -56 -140 -26 -59 -189 -479 -189 -487 0 -5 26 -8 57 -6 l57 3 35 93 c41 105 18 93 191 93 176 0 152 12 191 -93 l34 -93 58 -3 c31 -2 57 1 57 6 0 6 -67 178 -149 383 -146 368 -149 374 -180 380 -17 4 -37 2 -45 -5z m140 -464 c-5 -8 -203 -8 -211 0 -5 4 20 72 97 268 9 22 15 10 64 -118 30 -79 52 -147 50 -150z" style="fill: rgb(34, 174, 239);"/>
    <path d="M2689 2985 c-1 0 -3 -172 -3 -382 l-2 -383 52 0 c33 0 53 5 56 13 2 6 3 125 3 264 -1 138 2 250 5 248 4 -2 48 -67 100 -145 86 -130 95 -140 124 -140 29 0 38 10 126 141 52 77 96 142 99 144 4 2 6 -116 6 -261 l-1 -265 55 3 56 3 0 375 0 375 -30 5 c-17 3 -37 4 -46 2 -9 -2 -70 -84 -135 -182 -66 -98 -123 -177 -129 -176 -5 1 -62 80 -127 176 -65 95 -120 175 -122 178 -4 3 -52 7 -87 7z" style="fill: rgb(34, 174, 239);"/>
    <path d="M828 2553 c-95 -103 -194 -290 -214 -403 -3 -14 -7 -32 -9 -40 -27 -92 -20 -357 12 -440 3 -8 7 -22 8 -30 1 -8 12 -42 25 -75 93 -252 241 -434 475 -583 65 -41 345 -151 345 -135 0 3 7 0 15 -7 8 -7 15 -10 15 -7 0 3 25 -3 56 -13 31 -11 60 -17 64 -15 5 3 11 1 14 -4 3 -5 22 -12 42 -16 64 -12 357 -111 424 -144 69 -34 82 -41 145 -82 84 -55 200 -196 224 -271 15 -46 27 -48 36 -8 17 75 146 228 250 295 77 49 188 98 310 138 103 33 247 77 270 81 6 1 37 10 70 20 33 10 67 20 75 21 8 2 42 13 75 25 33 12 71 24 85 26 28 5 68 22 155 66 85 43 114 66 121 93 6 23 28 37 67 40 44 4 199 185 270 316 39 70 94 203 101 244 3 14 12 60 22 101 22 100 15 306 -14 414 -26 95 -95 244 -135 288 -10 10 -17 23 -17 29 0 6 -3 13 -7 15 -5 2 -24 21 -42 43 -19 22 -31 31 -27 20 57 -142 69 -195 68 -295 -1 -85 -6 -115 -31 -173 -35 -81 -104 -153 -196 -203 -103 -55 -205 -117 -215 -129 -7 -8 -17 -15 -22 -15 -14 0 -128 -115 -128 -128 0 -18 69 -32 191 -38 137 -7 210 -25 237 -59 28 -35 19 -56 -52 -128 -89 -91 -210 -165 -352 -217 -99 -37 -253 -79 -312 -85 -81 -9 -226 -10 -240 -1 -7 4 -12 3 -12 -3 0 -6 -6 -8 -12 -6 -7 2 -29 6 -48 9 -151 21 -270 134 -324 306 -33 102 -38 156 -50 476 -4 112 -15 139 -72 174 -60 38 -139 25 -192 -33 -25 -26 -23 -11 -38 -297 -7 -138 -10 -178 -19 -230 -10 -55 -36 -144 -47 -157 -6 -7 -7 -13 -4 -13 10 0 -47 -80 -89 -124 -43 -45 -149 -96 -214 -103 -25 -3 -48 -7 -50 -9 -2 -2 -10 1 -18 7 -7 6 -13 8 -13 3 0 -9 -94 -9 -206 -1 -117 9 -385 96 -502 164 -100 57 -207 151 -237 207 -17 32 -17 34 1 59 28 40 68 49 254 61 105 7 158 16 170 31 14 17 -53 92 -128 143 -56 38 -166 103 -247 146 -57 30 -147 123 -172 177 -59 127 -50 317 22 461 13 26 23 48 21 48 -1 0 -14 -12 -28 -27z" style="fill: rgb(34, 174, 239);"/>
  </g>
</svg>